HIERARCHY
ROOT Hips
{
	OFFSET 0.00000 0.00000 0.00000
	CHANNELS 6 Xposition Yposition Zposition Zrotation Yrotation Xrotation 
	JOINT LHipJoint
	{
		OFFSET 0 0 0
		CHANNELS 3 Zrotation Yrotation Xrotation
		JOINT LeftUpLeg
		{
			OFFSET 3.13874 -1.57224 1.49786
			CHANNELS 3 Zrotation Yrotation Xrotation
			JOINT LeftLeg
			{
				OFFSET 2.10955 -5.79594 0.00000
				CHANNELS 3 Zrotation Yrotation Xrotation
				JOINT LeftFoot
				{
					OFFSET 2.41843 -6.64458 0.00000
					CHANNELS 3 Zrotation Yrotation Xrotation
					JOINT LeftToeBase
					{
						OFFSET 0.04713 -0.12948 1.66229
						CHANNELS 3 Zrotation Yrotation Xrotation
						End Site
						{
							OFFSET 0.00000 -0.00000 0.85167
						}
					}
				}
			}
		}
	}
	JOINT RHipJoint
	{
		OFFSET 0 0 0
		CHANNELS 3 Zrotation Yrotation Xrotation
		JOINT RightUpLeg
		{
			OFFSET -3.13988 -1.57224 1.49786
			CHANNELS 3 Zrotation Yrotation Xrotation
			JOINT RightLeg
			{
				OFFSET -2.15006 -5.90725 0.00000
				CHANNELS 3 Zrotation Yrotation Xrotation
				JOINT RightFoot
				{
					OFFSET -2.34496 -6.44273 0.00000
					CHANNELS 3 Zrotation Yrotation Xrotation
					JOINT RightToeBase
					{
						OFFSET -0.08699 -0.23900 1.55223
						CHANNELS 3 Zrotation Yrotation Xrotation
						End Site
						{
							OFFSET -0.00000 -0.00000 0.80281
						}
					}
				}
			}
		}
	}
	JOINT LowerBack
	{
		OFFSET 0 0 0
		CHANNELS 3 Zrotation Yrotation Xrotation
		JOINT Spine
		{
			OFFSET 0.01292 1.96517 -0.16495
			CHANNELS 3 Zrotation Yrotation Xrotation
			JOINT Spine1
			{
				OFFSET 0.02122 1.88666 0.19706
				CHANNELS 3 Zrotation Yrotation Xrotation
				JOINT Neck
				{
					OFFSET 0 0 0
					CHANNELS 3 Zrotation Yrotation Xrotation
					JOINT Neck1
					{
						OFFSET -0.01683 1.81591 0.07903
						CHANNELS 3 Zrotation Yrotation Xrotation
						JOINT Head
						{
							OFFSET 0.00815 1.74013 -0.47700
							CHANNELS 3 Zrotation Yrotation Xrotation
							End Site
							{
								OFFSET -0.00204 1.83225 -0.16933
							}
						}
					}
				}
				JOINT LeftShoulder
				{
					OFFSET 0 0 0
					CHANNELS 3 Zrotation Yrotation Xrotation
					JOINT LeftArm
					{
						OFFSET 3.38482 1.41533 0.19802
						CHANNELS 3 Zrotation Yrotation Xrotation
						JOINT LeftForeArm
						{
							OFFSET 4.32712 -0.00000 0.00000
							CHANNELS 3 Zrotation Yrotation Xrotation
							JOINT LeftHand
							{
								OFFSET 3.28587 -0.00000 -0.00000
								CHANNELS 3 Zrotation Yrotation Xrotation
								JOINT LeftFingerBase
								{
									OFFSET 0 0 0
									CHANNELS 3 Zrotation Yrotation Xrotation
									JOINT LeftHandIndex1
									{
										OFFSET 0.43316 -0.00000 -0.00000
										CHANNELS 3 Zrotation Yrotation Xrotation
										End Site
										{
											OFFSET 0.34922 -0.00000 -0.00000
										}
									}
								}
								JOINT LThumb
								{
									OFFSET 0 0 0
									CHANNELS 3 Zrotation Yrotation Xrotation
									End Site
									{
										OFFSET 0.35456 -0.00000 0.35456
									}
								}
							}
						}
					}
				}
				JOINT RightShoulder
				{
					OFFSET 0 0 0
					CHANNELS 3 Zrotation Yrotation Xrotation
					JOINT RightArm
					{
						OFFSET -3.09725 1.62858 -0.14144
						CHANNELS 3 Zrotation Yrotation Xrotation
						JOINT RightForeArm
						{
							OFFSET -4.29104 -0.00000 0.00000
							CHANNELS 3 Zrotation Yrotation Xrotation
							JOINT RightHand
							{
								OFFSET -3.22720 -0.00000 -0.00000
								CHANNELS 3 Zrotation Yrotation Xrotation
								JOINT RightFingerBase
								{
									OFFSET 0 0 0
									CHANNELS 3 Zrotation Yrotation Xrotation
									JOINT RightHandIndex1
									{
										OFFSET -0.54362 -0.00000 -0.00000
										CHANNELS 3 Zrotation Yrotation Xrotation
										End Site
										{
											OFFSET -0.43828 -0.00000 -0.00000
										}
									}
								}
								JOINT RThumb
								{
									OFFSET 0 0 0
									CHANNELS 3 Zrotation Yrotation Xrotation
									End Site
									{
										OFFSET -0.44497 -0.00000 0.44497
									}
								}
							}
						}
					}
				}
			}
		}
	}
}
MOTION
Frames: 7
Frame Time: .0083333
7.1548 15.9635 3.3669 -106.7350 -60.1749 -258.0570 0.0000 0.0000 0.0000 -3.6911 -15.8976 4.0858 2.0513 8.9721 25.7080 1.7095 -11.7279 -23.6355 6.4905 -14.8874 -46.9198 0.0000 0.0000 0.0000 10.3323 0.9586 -71.8641 -18.0094 -19.9047 84.1711 -0.4873 -34.3644 -49.3052 -0.7837 5.6516 -15.7769 -6.3648 2.2214 23.6530 7.3035 2.0473 -1.3185 11.0015 1.7276 -15.0517 -10.4948 -9.6252 -11.3000 13.5847 -18.2854 32.1893 4.0370 -8.2237 15.6057 -0.0000 -0.0000 0.0000 -31.9622 -10.0440 39.3319 110.0928 -58.4182 -77.3085 -0.0000 -0.0000 11.5096 29.8277 16.9197 9.4732 -7.1250 0.0000 -0.0000 1.9379 49.2933 0.2052 -0.0000 -0.0000 0.0000 44.6093 -27.6848 44.0755 -28.6146 39.6759 -10.5138 0.0000 -0.0000 -5.8729 -26.7681 -14.0416 6.9777 7.1250 -0.0000 -0.0000 0.6420 -45.6273 -0.0099
7.1723 15.9026 3.4038 -108.3650 -60.2620 -257.2250 0.0000 0.0000 0.0000 -4.2540 -14.9907 4.7724 2.0461 8.9614 25.6747 1.6584 -12.6930 -23.4284 6.1969 -14.6164 -45.7668 0.0000 0.0000 0.0000 8.8277 0.7838 -69.8005 -14.2769 -19.1959 73.0483 0.8631 -18.4102 -16.3161 -0.3101 3.5800 -9.8979 -6.4268 2.1548 24.1971 7.4954 1.9042 -0.9025 11.2941 1.6323 -14.8322 -9.9442 -9.1714 -10.6628 13.4282 -17.7181 32.0295 4.0285 -7.9899 15.1882 0.0000 -0.0000 0.0000 -31.5350 -11.8801 38.6186 109.6727 -58.4859 -76.9505 -0.0000 -0.0000 10.6657 30.0174 17.1687 9.6784 -7.1250 0.0000 -0.0000 2.0951 49.6053 0.2380 0.0000 -0.0000 0.0000 44.7373 -28.0584 44.0148 -28.6900 39.7437 -10.5619 0.0000 -0.0000 -6.4276 -26.6415 -13.6971 6.7744 7.1250 -0.0000 -0.0000 0.7158 -45.2306 -0.0041
7.1882 15.8504 3.4458 -110.0540 -60.4689 -256.1830 0.0000 0.0000 0.0000 -5.0381 -14.1863 5.5958 1.9798 8.8240 25.2462 1.6824 -12.9314 -23.6234 6.0624 -14.4886 -45.2317 0.0000 0.0000 0.0000 7.0124 0.8897 -67.2151 -10.5947 -17.7310 61.4580 1.6763 -22.6153 -13.4882 -0.2296 3.0841 -8.5131 -6.9696 2.1603 24.5717 7.6868 1.7408 -0.6832 11.8893 1.5894 -14.7657 -9.8150 -8.8457 -9.5418 13.6724 -17.5939 32.1481 4.1918 -8.0015 14.9827 0.0000 -0.0000 0.0000 -31.8617 -13.7057 38.3353 108.4575 -58.6728 -75.9134 -0.0000 -0.0000 10.3068 30.0265 16.8568 9.5143 -7.1250 0.0000 -0.0000 2.1436 49.2563 0.2251 0.0000 -0.0000 0.0000 44.8261 -28.6761 44.0029 -28.4418 39.5198 -10.4036 0.0000 -0.0000 -7.1272 -26.4291 -13.2968 6.5215 7.1250 -0.0000 -0.0000 0.8628 -44.7621 0.0051
7.2030 15.8132 3.4872 -111.8130 -61.0778 -254.8240 0.0000 0.0000 0.0000 -6.3144 -13.5625 6.3071 1.8835 8.6191 24.6110 1.7777 -12.8016 -24.2229 6.1793 -14.5999 -45.6971 0.0000 0.0000 0.0000 4.0050 1.8966 -62.4444 -6.3028 -14.7155 46.1853 2.5272 -26.7878 -10.0220 -0.4147 4.1335 -11.4527 -7.8799 2.1763 24.7567 7.7201 1.4760 -0.4742 12.5532 1.5170 -14.5782 -9.5042 -8.5329 -9.3780 13.6875 -17.4992 32.8154 4.1892 -7.9605 15.2161 0.0000 -0.0000 0.0000 -32.3038 -15.8471 38.1359 105.7335 -59.0437 -73.5819 -0.0000 -0.0000 10.2139 30.3371 16.2850 9.3195 -7.1250 0.0000 -0.0000 2.5187 48.6637 0.2277 0.0000 -0.0000 0.0000 45.2080 -29.0959 43.5258 -27.8934 39.0179 -10.0565 0.0000 -0.0000 -7.3279 -26.3721 -13.5168 6.6101 7.1250 -0.0000 -0.0000 0.9437 -44.9971 0.0001
7.2131 15.7937 3.5228 -113.5080 -61.9813 -253.2220 0.0000 0.0000 0.0000 -7.8672 -13.1467 6.7238 1.7790 8.3896 23.9039 1.8588 -12.8206 -24.7436 6.2185 -14.6368 -45.8523 0.0000 0.0000 0.0000 -1.3374 5.7931 -53.7874 -2.2106 -9.2916 26.7118 -1.7077 -9.5363 -29.7109 -0.9226 -6.1196 17.1319 -8.7008 2.0864 24.6831 7.5528 1.0793 -0.1122 12.9598 1.3280 -14.0133 -9.5476 -8.3412 -10.5094 13.8453 -17.5722 33.9399 4.2279 -7.9243 16.0899 -0.0000 0.0000 0.0000 -32.6359 -18.4327 37.5663 101.6821 -59.4780 -70.0993 -0.0000 -0.0000 10.1277 30.9802 15.9939 9.3933 -7.1250 0.0000 -0.0000 3.1839 48.4398 0.2704 -0.0000 0.0000 0.0000 46.1095 -28.9346 42.2429 -27.1133 38.2870 -9.5692 0.0000 -0.0000 -7.0909 -26.3874 -14.0542 6.8699 7.1250 -0.0000 -0.0000 1.0008 -45.5903 -0.0146
7.2190 15.7967 3.5455 -114.8440 -62.6953 -251.5590 0.0000 0.0000 0.0000 -8.9035 -12.9138 6.5279 1.7136 8.2421 23.4519 1.8952 -12.8007 -24.9708 6.1481 -14.5703 -45.5732 0.0000 0.0000 0.0000 -16.3263 22.1721 -41.0254 -0.0557 -1.5234 4.1904 -7.5446 12.5679 -50.9752 -4.4412 -12.7254 38.3491 -9.7543 2.0845 24.1300 7.3900 0.8167 -0.2995 13.4883 1.2915 -13.8782 -9.2373 -8.0811 -10.4223 13.5900 -17.6599 35.2015 4.0857 -7.9919 16.6709 0.0000 0.0000 0.0000 -33.1860 -21.0610 38.3591 96.9786 -59.8152 -66.0399 -0.0000 -0.0000 10.3852 31.1312 15.7333 9.3011 -7.1250 0.0000 -0.0000 3.3569 48.1681 0.2626 0.0000 0.0000 0.0000 47.1359 -30.0468 41.2461 -26.4126 37.6133 -9.1383 0.0000 -0.0000 -6.9197 -26.5657 -14.3257 7.0528 7.1250 -0.0000 -0.0000 0.8704 -45.9130 -0.0196
7.2192 15.8166 3.5502 -115.5630 -63.1806 -250.0900 0.0000 0.0000 0.0000 -9.2777 -12.8860 5.6994 1.6940 8.1973 23.3150 1.9003 -12.7890 -25.0012 6.1099 -14.5340 -45.4213 0.0000 0.0000 0.0000 88.1344 -21.1900 -105.0885 -0.0013 0.2312 -0.6353 -12.6631 -22.5740 68.1285 -3.9964 -12.1557 36.2849 -10.6252 1.9759 23.1845 7.3266 0.5242 -0.6136 14.0397 1.2365 -13.6706 -8.9324 -7.8474 -10.3896 13.2377 -17.4288 35.7438 3.9429 -7.9095 16.8184 0.0000 -0.0000 0.0000 -34.0058 -23.2934 39.3800 91.9269 -59.9860 -61.6686 -0.0000 -0.0000 11.3730 30.4157 15.4771 8.9036 -7.1250 0.0000 -0.0000 2.6806 47.7625 0.1828 0.0000 -0.0000 0.0000 48.0725 -31.3829 40.4886 -25.8233 37.0337 -8.7810 0.0000 -0.0000 -7.1806 -26.5648 -14.3189 7.0493 7.1250 -0.0000 -0.0000 0.8704 -45.9053 -0.0194
